<svg width="266" height="150" viewBox="0 0 266 150" fill="none" xmlns="http://www.w3.org/2000/svg">
<g clip-path="url(#clip0_4_493)">
<path d="M112.1 73.1999C117.3 74.9999 122.6 75.7999 127.8 75.6999C152.7 75.2999 182.4 51.5999 180.8 24.6999C180.4 18.7999 175.8 14.5999 169.9 17.3999C167.2 18.6999 165.2 21.0999 163.3 23.3999C156.5 31.7999 147.6 37.9999 136.8 39.6999C122.4 41.8999 109.1 36.0999 94.9997 33.7999C86.3997 32.3999 82.5997 38.1999 85.1997 46.1999C89.2997 58.7999 99.6997 68.8999 112.1 73.1999Z" fill="#D8B987"/>
<path d="M124.499 30.9C126.999 32.3 129.899 33 132.699 32.9C138.999 32.7 144.299 28.6 147.099 23.1C149.599 18.1 149.999 11.8 147.099 6.89998C143.699 1.09998 135.999 -1.00002 129.699 0.399981C121.199 2.29998 115.099 10.5 116.399 19.3C117.299 24.1 120.299 28.5 124.499 30.9Z" fill="#D8B987"/>
<path d="M46.7002 142.1V149.9H45.5002L41.9002 144.1V149.9H40.7002V142.1H42.0002L45.5002 147.9V142.1H46.7002Z" fill="#D8B987"/>
<path d="M52.4998 149.2C51.9998 148.7 51.7998 147.9 51.7998 146.8V142H52.9998V146.7C52.9998 148.2 53.5998 148.9 54.6998 148.9C55.7998 148.9 56.3998 148.2 56.3998 146.7V142H57.5998V146.8C57.5998 147.8 57.3998 148.6 56.8998 149.2C56.3998 149.7 55.6998 150 54.7998 150C53.6998 150 52.8998 149.8 52.4998 149.2Z" fill="#D8B987"/>
<path d="M64.1998 143H61.7998V142.1H67.7998V143H65.3998V149.9H64.1998V143Z" fill="#D8B987"/>
<path d="M72.2002 142.1H74.7002C75.6002 142.1 76.2002 142.3 76.6002 142.6C77.0002 143 77.2002 143.5 77.2002 144.2C77.2002 144.7 77.1002 145.1 76.8002 145.5C76.6002 145.9 76.2002 146.1 75.8002 146.3C75.9002 146.4 76.1002 146.5 76.2002 146.6C76.3002 146.7 76.4002 146.8 76.4002 147L77.6002 149.9H76.3002L75.3002 147.4C75.2002 147.1 75.1002 146.9 74.9002 146.8C74.7002 146.7 74.5002 146.6 74.1002 146.6H73.4002V149.8H72.2002V142.1ZM74.6002 145.7C75.6002 145.7 76.1002 145.2 76.1002 144.3C76.1002 143.9 76.0002 143.6 75.7002 143.4C75.5002 143.2 75.1002 143.1 74.6002 143.1H73.4002V145.7H74.6002Z" fill="#D8B987"/>
<path d="M82.2998 142.1H83.4998V149.9H82.2998V142.1Z" fill="#D8B987"/>
<path d="M89.8998 149.5C89.3998 149.2 88.9998 148.7 88.6998 148.1C88.3998 147.5 88.2998 146.8 88.2998 146C88.2998 145.2 88.3998 144.5 88.6998 143.9C88.9998 143.3 89.3998 142.8 89.8998 142.5C90.3998 142.2 90.9998 142 91.6998 142C92.2998 142 92.7998 142.1 93.1998 142.3C93.5998 142.5 93.9998 142.8 94.1998 143.2L93.4998 143.8C93.0998 143.2 92.4998 142.9 91.6998 142.9C90.9998 142.9 90.3998 143.2 89.9998 143.7C89.5998 144.2 89.3998 145 89.3998 145.9C89.3998 146.9 89.5998 147.6 89.9998 148.1C90.3998 148.6 90.8998 148.9 91.5998 148.9C91.9998 148.9 92.3998 148.8 92.6998 148.7C92.9998 148.5 93.2998 148.3 93.3998 148L94.0998 148.6C93.8998 149 93.5998 149.3 93.0998 149.5C92.6998 149.7 92.0998 149.8 91.4998 149.8C90.9998 150 90.3998 149.9 89.8998 149.5Z" fill="#D8B987"/>
<path d="M99 142.1H100.2V149.9H99V142.1Z" fill="#D8B987"/>
<path d="M106.6 149.5C106.1 149.2 105.7 148.7 105.4 148.1C105.1 147.5 105 146.8 105 146C105 145.2 105.1 144.5 105.4 143.9C105.7 143.3 106.1 142.8 106.6 142.5C107.1 142.2 107.7 142 108.4 142C109.1 142 109.7 142.2 110.2 142.5C110.7 142.8 111.1 143.3 111.4 143.9C111.7 144.5 111.8 145.2 111.8 146C111.8 146.8 111.7 147.5 111.4 148.1C111.1 148.7 110.7 149.2 110.2 149.5C109.7 149.8 109.1 150 108.4 150C107.7 150 107.1 149.9 106.6 149.5ZM110 148.2C110.4 147.7 110.6 146.9 110.6 146C110.6 145.1 110.4 144.3 110 143.8C109.6 143.3 109.1 143 108.4 143C107.7 143 107.2 143.3 106.8 143.8C106.4 144.3 106.2 145.1 106.2 146C106.2 146.6 106.3 147.2 106.5 147.6C106.7 148.1 106.9 148.4 107.3 148.7C107.6 148.9 108 149.1 108.4 149.1C109.1 149.1 109.6 148.8 110 148.2ZM109.2 139.8L110.2 140.3C110.2 140.3 109.4 141.2 108.6 141.3C108 141.3 107.7 141 107.7 141L109.2 139.8Z" fill="#D8B987"/>
<path d="M122.3 142.1V149.9H121.1L117.5 144.1V149.9H116.3V142.1H117.5L121 147.9V142.1H122.3Z" fill="#D8B987"/>
<path d="M132.701 149.5C132.201 149.2 131.801 148.7 131.501 148.1C131.201 147.5 131.101 146.8 131.101 146C131.101 145.2 131.201 144.5 131.501 143.9C131.801 143.3 132.201 142.8 132.701 142.5C133.201 142.2 133.801 142 134.501 142C135.101 142 135.601 142.1 136.001 142.3C136.401 142.5 136.801 142.8 137.001 143.2L136.301 143.8C135.901 143.2 135.301 142.9 134.501 142.9C133.801 142.9 133.201 143.2 132.801 143.7C132.401 144.2 132.201 145 132.201 145.9C132.201 146.9 132.401 147.6 132.801 148.1C133.201 148.6 133.701 148.9 134.401 148.9C134.801 148.9 135.201 148.8 135.501 148.7C135.801 148.5 136.101 148.3 136.201 148L136.901 148.6C136.701 149 136.401 149.3 135.901 149.5C135.501 149.7 134.901 149.8 134.301 149.8C133.901 150 133.201 149.9 132.701 149.5Z" fill="#D8B987"/>
<path d="M142.701 149.5C142.201 149.2 141.801 148.7 141.501 148.1C141.201 147.5 141.101 146.8 141.101 146C141.101 145.2 141.201 144.5 141.501 143.9C141.801 143.3 142.201 142.8 142.701 142.5C143.201 142.2 143.801 142 144.501 142C145.201 142 145.801 142.2 146.301 142.5C146.801 142.8 147.201 143.3 147.501 143.9C147.801 144.5 147.901 145.2 147.901 146C147.901 146.8 147.801 147.5 147.501 148.1C147.201 148.7 146.801 149.2 146.301 149.5C145.801 149.8 145.201 150 144.501 150C143.801 150 143.201 149.9 142.701 149.5ZM146.101 148.2C146.501 147.7 146.701 146.9 146.701 146C146.701 145.1 146.501 144.3 146.101 143.8C145.701 143.3 145.201 143 144.501 143C143.801 143 143.301 143.3 142.901 143.8C142.501 144.3 142.301 145.1 142.301 146C142.301 146.6 142.401 147.2 142.601 147.6C142.801 148.1 143.001 148.4 143.401 148.7C143.701 148.9 144.101 149.1 144.501 149.1C145.201 149.1 145.701 148.8 146.101 148.2Z" fill="#D8B987"/>
<path d="M158.4 142.1V149.9H157.2L153.6 144.1V149.9H152.4V142.1H153.6L157.1 147.9V142.1H158.4Z" fill="#D8B987"/>
<path d="M164.1 149.7C163.6 149.5 163.3 149.2 163 148.8L163.7 148.1C163.9 148.4 164.2 148.6 164.6 148.8C165 149 165.3 149.1 165.6 149.1C166 149.1 166.3 149 166.6 148.8C166.9 148.6 167 148.3 167 148C167 147.8 167 147.6 166.9 147.4C166.8 147.2 166.7 147.1 166.4 146.9C166.2 146.7 165.9 146.6 165.5 146.4C164.7 146 164.1 145.6 163.8 145.3C163.5 144.9 163.3 144.5 163.3 144C163.3 143.6 163.4 143.3 163.6 143C163.8 142.7 164.1 142.5 164.5 142.3C164.9 142.1 165.3 142.1 165.8 142.1C166.3 142.1 166.8 142.2 167.2 142.4C167.6 142.6 167.9 142.9 168.1 143.3L167.3 143.9C167.1 143.6 166.9 143.5 166.6 143.3C166.3 143.2 166.1 143.1 165.7 143.1C165.3 143.1 165 143.2 164.8 143.4C164.6 143.6 164.5 143.8 164.5 144.1C164.5 144.3 164.5 144.4 164.6 144.6C164.7 144.7 164.9 144.9 165.1 145C165.3 145.2 165.7 145.4 166.2 145.6C166.9 145.9 167.4 146.3 167.7 146.7C168 147.1 168.1 147.5 168.1 148C168.1 148.4 168 148.8 167.8 149.1C167.6 149.4 167.3 149.7 166.9 149.9C166.5 150.1 166 150.2 165.5 150.2C165 150 164.5 149.9 164.1 149.7Z" fill="#D8B987"/>
<path d="M173.9 149.5C173.4 149.2 173 148.7 172.7 148.1C172.4 147.5 172.3 146.8 172.3 146C172.3 145.2 172.4 144.5 172.7 143.9C173 143.3 173.4 142.8 173.9 142.5C174.4 142.2 175 142 175.7 142C176.3 142 176.8 142.1 177.2 142.3C177.6 142.5 178 142.8 178.2 143.2L177.5 143.8C177.1 143.2 176.5 142.9 175.7 142.9C175 142.9 174.4 143.2 174 143.7C173.6 144.2 173.4 145 173.4 145.9C173.4 146.9 173.6 147.6 174 148.1C174.4 148.6 174.9 148.9 175.6 148.9C176 148.9 176.4 148.8 176.7 148.7C177 148.5 177.3 148.3 177.4 148L178.1 148.6C177.9 149 177.6 149.3 177.1 149.5C176.7 149.7 176.1 149.8 175.5 149.8C175 150 174.4 149.9 173.9 149.5Z" fill="#D8B987"/>
<path d="M183 142.1H184.2V149.9H183V142.1Z" fill="#D8B987"/>
<path d="M189.5 142.1H194.4V143.1H190.8V145.3H194V146.3H190.8V148.9H194.4V149.9H189.5V142.1Z" fill="#D8B987"/>
<path d="M205 142.1V149.9H203.8L200.2 144.1V149.9H199V142.1H200.2L203.7 147.9V142.1H205Z" fill="#D8B987"/>
<path d="M211.8 143H209.4V142.1H215.4V143H213V149.9H211.8V143Z" fill="#D8B987"/>
<path d="M219.8 142.1H224.7V143.1H221V145.3H224.2V146.3H221V148.9H224.6V149.9H219.7V142.1H219.8Z" fill="#D8B987"/>
<path d="M138.6 95.5C136.6 92.1 133.6 90.3 129.8 89.8C127.4 89.5 125 89.6 122.7 90.4C120 91.3 117.7 92.9 116.1 95.2C115.6 95.8 115.6 95.8 115.1 95.2C114.3 94.1 113.4 93 112.3 92.2C109.9 90.3 107.1 89.7 104.1 89.7C102.9 89.7 101.7 89.9 100.6 90.2C97.9998 91 95.9998 92.7 94.5998 94.9C94.4998 95.1 94.3998 95.3 94.1998 95.2C93.8998 95.1 93.9998 94.9 93.9998 94.7C93.9998 93.5 93.9998 92.3 93.9998 91.1C93.9998 90.5 93.7998 90.3 93.2998 90.3C90.8998 90.3 88.5998 90.3 86.1998 90.3C85.2998 90.3 85.2998 90.3 85.2998 91.2C85.2998 97 85.2998 102.8 85.2998 108.5C85.2998 114.3 85.2998 120.1 85.2998 125.9C85.2998 126.5 85.4998 126.7 86.0998 126.7C88.6998 126.7 91.2998 126.7 93.7998 126.7C94.5998 126.7 94.5998 126.7 94.5998 125.9C94.5998 120.8 94.5998 115.7 94.5998 110.6C94.5998 108.7 94.4998 106.8 94.8998 104.9C95.1998 103.5 95.6998 102.2 96.5998 101.1C98.1998 99 100.5 98.3 103 98.8C106.4 99.4 107.3 101.4 108 103.7C108.5 105.3 108.4 107 108.4 108.7C108.4 114.4 108.4 120.1 108.4 125.8C108.4 126.8 108.4 126.8 109.4 126.8C111.9 126.8 114.3 126.8 116.8 126.8C117.7 126.8 117.7 126.8 117.7 125.9C117.7 120.2 117.7 114.4 117.7 108.7C117.7 107.2 117.8 105.7 118.2 104.2C119 101.2 121 99 124.3 98.7C126.4 98.5 128.3 99 129.7 100.7C130.6 101.8 131.1 103.2 131.2 104.6C131.4 106.2 131.5 107.7 131.5 109.3C131.5 114.8 131.5 120.4 131.5 125.9C131.5 126.5 131.7 126.7 132.3 126.7C134.9 126.7 137.4 126.7 140 126.7C140.8 126.7 140.8 126.7 140.8 125.8C140.8 119.4 140.8 113.1 140.8 106.7C140.8 104.7 140.8 102.8 140.4 100.8C140.1 99 139.6 97.2 138.6 95.5Z" fill="#D8B987"/>
<path d="M181.2 99.7C180.6 97.1 179.3 94.9 177.3 93.2C175.1 91.4 172.6 90.4 169.8 89.9C165.4 89.2 161.2 89.6 157.1 91.4C154.2 92.7 151.9 94.8 150.3 97.5C150.1 97.9 150 98.2 150.6 98.5C152.7 99.7 154.8 100.9 156.8 102.1C157.2 102.3 157.4 102.2 157.6 102C158 101.5 158.4 101 158.8 100.6C161.4 98.1 164.7 97.6 168.1 98.2C169.7 98.5 171.1 99.3 171.9 100.9C172.6 102.3 172 104 170.5 104.4C169.4 104.7 168.2 104.9 167.1 105C163.6 105.6 160 105.9 156.6 106.8C155.1 107.2 153.6 107.8 152.4 108.8C150.7 110.1 149.5 111.8 149.1 113.9C148.5 116.9 148.7 119.8 150.5 122.4C152.7 125.5 155.8 126.9 159.4 127.3C161.7 127.6 163.9 127.4 166.2 126.7C168.6 125.9 170.7 124.6 172.3 122.6C172.4 122.4 172.5 122 172.8 122.1C173.1 122.2 173 122.6 173 122.8C173 123.8 173 124.8 173 125.7C173 126.5 173 126.6 173.8 126.6C176.1 126.6 178.4 126.6 180.7 126.6C181.5 126.6 181.5 126.6 181.5 125.8C181.5 121.9 181.5 118 181.5 114.1C181.5 110.4 181.5 106.6 181.5 102.9C181.5 102 181.4 100.8 181.2 99.7ZM170 117.2C168.9 118.3 167.6 119 166.1 119.3C165.2 119.5 164.2 119.8 163.4 119.7C161.9 119.8 160.6 119.6 159.4 118.9C157.4 117.8 157.4 114.7 159.4 113.4C160.4 112.8 161.4 112.5 162.5 112.3C165.4 111.9 168.3 111.4 171.2 111C172 110.9 172.1 111 172.1 111.8C172.1 113.9 171.6 115.7 170 117.2Z" fill="#D8B987"/>
<path d="M265.3 103.1C265.3 102 265.2 100.8 265 99.7999C264.4 97.1999 263.1 94.9999 261.1 93.2999C258.9 91.4999 256.4 90.4999 253.6 89.9999C249.2 89.2999 245 89.6999 240.9 91.4999C238 92.7999 235.7 94.8999 234.1 97.5999C233.9 97.9999 233.8 98.2999 234.4 98.5999C236.5 99.7999 238.6 101 240.6 102.2C241 102.4 241.2 102.3 241.4 102.1C241.8 101.6 242.2 101.1 242.6 100.7C245.2 98.1999 248.5 97.6999 251.9 98.2999C253.5 98.5999 254.9 99.3999 255.7 101C256.4 102.4 255.8 104.1 254.3 104.5C253.2 104.8 252 105 250.9 105.1C247.4 105.7 243.8 106 240.4 106.9C238.9 107.3 237.4 107.9 236.2 108.9C234.5 110.2 233.3 111.9 232.9 114C232.3 117 232.5 119.9 234.3 122.5C236.5 125.6 239.6 127 243.2 127.4C245.5 127.7 247.7 127.5 250 126.8C252.4 126 254.5 124.7 256.1 122.7C256.2 122.5 256.3 122.1 256.6 122.2C256.9 122.3 256.8 122.7 256.8 122.9C256.8 123.9 256.8 124.9 256.8 125.8C256.8 126.6 256.8 126.7 257.6 126.7C259.9 126.7 262.2 126.7 264.5 126.7C265.3 126.7 265.3 126.7 265.3 125.9C265.3 122 265.3 118.1 265.3 114.2C265.3 110.6 265.3 106.8 265.3 103.1ZM253.9 117.2C252.8 118.3 251.5 119 250 119.3C249.1 119.5 248.1 119.8 247.3 119.7C245.8 119.8 244.5 119.6 243.3 118.9C241.3 117.8 241.3 114.7 243.3 113.4C244.3 112.8 245.3 112.5 246.4 112.3C249.3 111.9 252.2 111.4 255.1 111C255.9 110.9 256 111 256 111.8C256 113.9 255.4 115.7 253.9 117.2Z" fill="#D8B987"/>
<path d="M32.2 97.6C31.5 95.8 30.5 94.3 29.1 93C26.5 90.6 23.3 89.7 19.8 89.7C17.6 89.7 15.6 90.1 13.6 91.1C11.8 92 10.3 93.3 9.1 95.1C9 95.3 8.8 95.4 8.7 95.4C8.5 95.3 8.6 95.1 8.6 95C8.6 93.8 8.6 92.5 8.6 91.3C8.6 90.7 8.4 90.5 7.8 90.5C5.5 90.5 3.1 90.5 0.8 90.5C0 90.5 0 90.5 0 91.3C0 97.1 0 102.9 0 108.6C0 114.3 0 120.2 0 125.9C0 126.8 0 126.8 0.8 126.8C3.3 126.8 5.7 126.8 8.2 126.8C9.2 126.8 9.2 126.8 9.2 125.9C9.2 120.5 9.2 115.1 9.2 109.8C9.2 108.3 9.2 106.8 9.5 105.3C9.9 103.8 10.4 102.3 11.5 101.2C13.4 99.1 15.9 98.4 18.7 99C21.4 99.6 22.9 101.3 23.7 103.9C24.2 105.6 24.3 107.3 24.3 109C24.3 114.7 24.3 120.4 24.3 126.1C24.3 126.7 24.5 126.9 25.1 126.9C27.7 126.9 30.2 126.9 32.8 126.9C33.6 126.9 33.6 126.9 33.6 126.1C33.6 119.4 33.6 112.7 33.6 106C33.5 103 33.2 100.2 32.2 97.6Z" fill="#D8B987"/>
<path d="M224.5 126C224.5 119.3 224.5 112.6 224.5 105.9C224.5 103.1 224.2 100.3 223.1 97.6999C222.4 95.8999 221.4 94.3999 220 93.0999C217.4 90.6999 214.2 89.7999 210.7 89.7999C208.5 89.7999 206.5 90.1999 204.5 91.1999C202.7 92.0999 201.2 93.3999 200 95.1999C199.9 95.3999 199.7 95.4999 199.6 95.4999C199.4 95.3999 199.5 95.1999 199.5 95.0999C199.5 93.8999 199.5 92.5999 199.5 91.3999C199.5 90.7999 199.3 90.5999 198.7 90.5999C196.4 90.5999 194 90.5999 191.7 90.5999C190.9 90.5999 190.9 90.5999 190.9 91.3999C190.9 97.1999 190.9 103 190.9 108.7C190.9 114.4 190.9 120.3 190.9 126C190.9 126.9 190.9 126.9 191.7 126.9C194.2 126.9 196.6 126.9 199.1 126.9C200.1 126.9 200.1 126.9 200.1 126C200.1 120.6 200.1 115.2 200.1 109.9C200.1 108.4 200.1 106.9 200.4 105.4C200.8 103.9 201.3 102.4 202.4 101.3C204.3 99.1999 206.8 98.4999 209.6 99.0999C212.3 99.6999 213.8 101.4 214.6 104C215.1 105.7 215.2 107.4 215.2 109.1C215.2 114.8 215.2 120.5 215.2 126.2C215.2 126.8 215.4 127 216 127C218.6 127 221.1 127 223.7 127C224.4 126.8 224.5 126.8 224.5 126Z" fill="#D8B987"/>
<path d="M75.8003 110.7C75.8003 104.2 75.8003 97.7999 75.8003 91.2999C75.8003 90.4999 75.8003 90.3999 74.9003 90.3999C72.4003 90.3999 69.9003 90.3999 67.4003 90.3999C66.5003 90.3999 66.5003 90.3999 66.5003 91.2999C66.5003 97.1999 66.5003 103.1 66.5003 108.9C66.5003 110.9 66.5003 112.8 65.7003 114.7C65.0003 116.4 63.9003 117.6 62.2003 118.2C60.9003 118.7 59.6003 118.7 58.3003 118.6C55.2003 118.3 53.4003 116.5 52.6003 113.8C52.1003 112.2 52.1003 110.5 52.1003 108.8C52.1003 102.9 52.1003 96.9999 52.1003 91.1999C52.1003 90.5999 51.9003 90.3999 51.3003 90.3999C48.7003 90.3999 46.2003 90.3999 43.6003 90.3999C43.0003 90.3999 42.8003 90.5999 42.8003 91.1999C42.8003 94.6999 42.8003 98.2999 42.8003 102.6C43.0003 106 42.5003 110.1 43.1003 114.3C43.4003 116.4 44.0003 118.3 45.1003 120.1C47.9003 124.7 52.2003 126.9 57.3003 127.5C60.8003 127.9 64.1003 127.4 67.3003 125.8C71.0003 124 73.5003 121.1 74.9003 117.2C75.6003 115.1 75.8003 112.9 75.8003 110.7Z" fill="#D8B987"/>
<path d="M129.2 66.1999C125.2 66.1999 121.2 65.6999 117.3 64.6999C110 62.9999 102.9 59.4999 98.2996 53.4999C97.0996 51.9999 96.1996 50.2999 95.7996 48.3999C94.3996 40.2999 104.6 40.4999 109.9 41.3999C118.1 42.7999 126.2 44.8999 134.5 45.4999C142.8 46.0999 151.5 45.0999 158.6 40.7999C161.4 39.0999 164.7 36.8999 167.6 38.3999C169.3 39.2999 170.1 41.2999 170 43.1999C169.9 45.0999 169.1 46.8999 168.1 48.4999C165 53.3999 160.2 57.0999 155.1 59.8999C147.2 64.0999 138.2 66.2999 129.2 66.1999Z" fill="#D0AA6A"/>
<path d="M133.5 27.6C128.1 27.8 122.8 25.1 121.3 19.1C119.2 10.7 127.8 4.39995 135.5 4.49995C139.6 4.59995 143.7 6.69995 145.6 10.3C147.1 13.1 147.1 16.6 145.9 19.5C143.8 24.5 138.6 27.4 133.5 27.6Z" fill="#D0AA6A"/>
</g>
<defs>
<clipPath id="clip0_4_493">
<rect width="265.3" height="150" fill="white"/>
</clipPath>
</defs>
</svg>
