<svg width="222" height="33" viewBox="0 0 222 33" fill="none" xmlns="http://www.w3.org/2000/svg">
<g clip-path="url(#clip0_4_455)">
<path d="M11.9297 31.9332C14.1885 32.7155 16.4473 33.0711 18.7061 33C29.5061 32.7867 42.3532 22.4742 41.6473 10.8104C41.5061 8.25002 39.4591 6.40088 36.9179 7.68105C35.7885 8.25002 34.8708 9.24571 34.0944 10.3125C31.2003 13.9397 27.3179 16.7134 22.6591 17.4246C16.4473 18.4203 10.6591 15.8599 4.58849 14.8642C0.847317 14.2953 -0.776213 16.7845 0.353199 20.2694C2.11791 25.6035 6.56496 30.013 11.9297 31.9332Z" fill="#D8B987"/>
<path d="M17.2944 13.4419C18.3532 14.082 19.6238 14.3664 20.8238 14.2953C23.5768 14.2242 25.8356 12.4462 27.0356 10.0281C28.0944 7.89445 28.3062 5.12075 27.0356 2.98713C25.5532 0.497901 22.2356 -0.426667 19.5532 0.142298C15.8826 0.995746 13.2003 4.55178 13.8356 8.3923C14.1885 10.5259 15.4591 12.4462 17.2944 13.4419Z" fill="#D8B987"/>
<path d="M139.482 10.8105C138.212 8.60575 136.165 7.39669 133.765 7.11221C132.212 6.89885 130.659 6.96997 129.176 7.46782C127.412 8.1079 125.929 9.10359 124.871 10.5971C124.588 11.0238 124.518 11.0238 124.235 10.5971C123.671 9.88592 123.106 9.17471 122.4 8.60575C120.847 7.39669 119.012 6.96997 117.035 6.96997C116.259 6.96997 115.482 7.11221 114.776 7.32557C113.153 7.89454 111.882 8.96135 110.894 10.3838C110.824 10.4549 110.824 10.5971 110.612 10.5971C110.4 10.526 110.471 10.3838 110.471 10.2415C110.471 9.45919 110.471 8.67687 110.471 7.89454C110.471 7.53894 110.329 7.39669 109.976 7.39669C108.424 7.39669 106.871 7.39669 105.318 7.39669C104.753 7.39669 104.753 7.39669 104.753 7.96566C104.753 11.7351 104.753 15.5756 104.753 19.345C104.753 23.1144 104.753 26.9549 104.753 30.7243C104.753 31.0799 104.894 31.2221 105.247 31.2221C106.941 31.2221 108.635 31.2221 110.259 31.2221C110.753 31.2221 110.824 31.2221 110.824 30.6532C110.824 27.3105 110.824 23.9678 110.824 20.6251C110.824 19.345 110.753 18.1359 111.035 16.8557C111.247 15.9312 111.529 15.0777 112.094 14.3665C113.153 13.0152 114.635 12.5174 116.259 12.8019C118.447 13.1575 119.082 14.5088 119.506 16.0023C119.788 17.0691 119.788 18.207 119.788 19.2738C119.788 23.0432 119.788 26.7415 119.788 30.5109C119.788 31.151 119.788 31.151 120.424 31.151C122.047 31.151 123.6 31.151 125.224 31.151C125.788 31.151 125.788 31.151 125.788 30.582C125.788 26.8126 125.788 23.0432 125.788 19.2738C125.788 18.2782 125.859 17.2825 126.141 16.3579C126.706 14.3665 127.976 12.9441 130.094 12.7307C131.435 12.5885 132.706 12.9441 133.624 14.0109C134.259 14.7221 134.541 15.6467 134.612 16.5713C134.753 17.567 134.753 18.6338 134.753 19.7006C134.753 23.3277 134.753 26.9549 134.753 30.6532C134.753 31.0799 134.894 31.2221 135.247 31.2221C136.941 31.2221 138.565 31.2221 140.259 31.2221C140.824 31.2221 140.824 31.2221 140.824 30.6532C140.824 26.457 140.824 22.332 140.824 18.1359C140.824 16.8557 140.824 15.5756 140.612 14.2954C140.471 13.1575 140.118 11.8773 139.482 10.8105Z" fill="#D8B987"/>
<path d="M167.223 13.584C166.87 11.8772 166.023 10.4547 164.682 9.31681C163.27 8.17888 161.647 7.46767 159.812 7.18319C156.988 6.75646 154.235 6.96982 151.553 8.17888C149.647 9.03232 148.165 10.3836 147.106 12.2328C146.965 12.5172 146.965 12.7306 147.247 12.8728C148.588 13.6552 149.929 14.4375 151.341 15.2198C151.553 15.3621 151.694 15.2909 151.835 15.1487C152.118 14.8642 152.329 14.5086 152.682 14.2241C154.376 12.5884 156.494 12.2328 158.753 12.6595C159.812 12.8728 160.729 13.4418 161.223 14.4375C161.718 15.3621 161.223 16.5 160.306 16.7845C159.6 16.9978 158.823 17.069 158.047 17.2112C155.788 17.5668 153.459 17.7802 151.2 18.4203C150.212 18.7047 149.294 19.1315 148.447 19.7004C147.318 20.5539 146.612 21.6207 146.329 23.0431C145.906 25.0345 146.118 26.8836 147.247 28.5905C148.659 30.653 150.706 31.5065 153.035 31.7909C154.518 31.9332 156 31.8621 157.482 31.4353C159.106 30.9375 160.376 30.084 161.435 28.7328C161.506 28.5905 161.576 28.3772 161.788 28.4483C162 28.5194 161.929 28.7328 161.929 28.9461C161.929 29.5862 161.929 30.2263 161.929 30.8664C161.929 31.4353 161.929 31.4353 162.494 31.4353C163.976 31.4353 165.529 31.4353 167.012 31.4353C167.576 31.4353 167.576 31.4353 167.576 30.8664C167.576 28.306 167.576 25.7457 167.576 23.1853C167.576 20.6961 167.576 18.278 167.576 15.7888C167.365 15.0776 167.365 14.2953 167.223 13.584ZM159.953 25.0345C159.247 25.7457 158.4 26.1724 157.412 26.3858C156.776 26.528 156.212 26.6703 155.647 26.5991C154.659 26.6703 153.812 26.528 153.035 26.1013C151.765 25.3901 151.765 23.3276 153.035 22.4741C153.67 22.0474 154.376 21.834 155.082 21.7629C156.988 21.4784 158.823 21.194 160.729 20.9095C161.223 20.8384 161.294 20.9095 161.294 21.4073C161.294 22.8297 160.941 24.1099 159.953 25.0345Z" fill="#D8B987"/>
<path d="M222.001 15.7888C222.001 15.0776 221.93 14.2953 221.789 13.584C221.436 11.8772 220.589 10.4547 219.248 9.31681C217.836 8.17888 216.212 7.46767 214.377 7.18319C211.554 6.75646 208.801 6.96982 206.118 8.17888C204.212 9.03232 202.73 10.3836 201.671 12.2328C201.53 12.5172 201.53 12.7306 201.812 12.8728C203.154 13.6552 204.495 14.4375 205.906 15.2198C206.118 15.3621 206.259 15.2909 206.401 15.1487C206.683 14.8642 206.895 14.5086 207.248 14.2241C208.942 12.5884 211.059 12.2328 213.318 12.6595C214.377 12.8728 215.295 13.4418 215.789 14.4375C216.283 15.3621 215.789 16.5 214.871 16.7845C214.165 16.9978 213.389 17.069 212.612 17.2112C210.354 17.5668 208.024 17.7802 205.765 18.4203C204.777 18.7047 203.859 19.1315 203.012 19.7004C201.883 20.5539 201.177 21.6207 200.895 23.0431C200.471 25.0345 200.683 26.8836 201.812 28.5905C203.224 30.653 205.271 31.5065 207.601 31.7909C209.083 31.9332 210.565 31.8621 212.048 31.4353C213.671 30.9375 214.942 30.084 216.001 28.7328C216.071 28.5905 216.142 28.3772 216.354 28.4483C216.565 28.5194 216.495 28.7328 216.495 28.9461C216.495 29.5862 216.495 30.2263 216.495 30.8664C216.495 31.4353 216.495 31.4353 217.059 31.4353C218.542 31.4353 220.095 31.4353 221.577 31.4353C222.142 31.4353 222.142 31.4353 222.142 30.8664C222.142 28.306 222.142 25.7457 222.142 23.1853C222.001 20.6961 222.001 18.2069 222.001 15.7888ZM214.518 25.0345C213.812 25.7457 212.965 26.1724 211.977 26.3858C211.342 26.528 210.777 26.6703 210.212 26.5991C209.224 26.6703 208.377 26.528 207.601 26.1013C206.33 25.3901 206.33 23.3276 207.601 22.4741C208.236 22.0474 208.942 21.834 209.648 21.7629C211.554 21.4784 213.389 21.194 215.295 20.9095C215.789 20.8384 215.859 20.9095 215.859 21.4073C215.93 22.8297 215.506 24.1099 214.518 25.0345Z" fill="#D8B987"/>
<path d="M70.1649 12.1617C69.7414 11.0238 69.1061 9.95698 68.1884 9.10353C66.4943 7.53887 64.3767 6.89879 62.1178 6.96991C60.7061 6.96991 59.3649 7.25439 58.0943 7.89448C56.8943 8.53456 55.9061 9.38801 55.2002 10.4548C55.1296 10.5971 55.059 10.6682 54.9178 10.6682C54.7767 10.5971 54.8473 10.4548 54.8473 10.3837C54.8473 9.60137 54.8473 8.74792 54.8473 7.9656C54.8473 7.53887 54.7061 7.46775 54.3531 7.46775C52.8002 7.46775 51.3178 7.46775 49.7649 7.46775C49.2002 7.46775 49.2002 7.46775 49.2002 8.03672C49.2002 11.8061 49.2002 15.6466 49.2002 19.416C49.2002 23.1854 49.2002 27.0259 49.2002 30.7953C49.2002 31.3643 49.2002 31.3643 49.7649 31.3643C51.3884 31.3643 53.012 31.3643 54.5649 31.3643C55.2002 31.3643 55.2002 31.3643 55.2002 30.7242C55.2002 27.1682 55.2002 23.6833 55.2002 20.1272C55.2002 19.1315 55.2002 18.1359 55.412 17.1402C55.6237 16.1445 56.0473 15.1488 56.7531 14.4376C58.0237 13.0152 59.5767 12.5884 61.412 13.0152C63.1767 13.3708 64.1649 14.5798 64.659 16.2156C65.012 17.2824 65.012 18.4203 65.012 19.5583C65.012 23.3277 65.012 27.0259 65.012 30.7953C65.012 31.1509 65.0826 31.2932 65.5061 31.2932C67.2002 31.2932 68.8237 31.2932 70.5178 31.2932C71.0826 31.2932 71.0825 31.2932 71.0825 30.7242C71.0825 26.3147 71.0825 21.9053 71.0825 17.4958C71.012 15.7178 70.8002 13.9397 70.1649 12.1617Z" fill="#D8B987"/>
<path d="M195.388 30.7953C195.388 26.3859 195.388 21.9764 195.388 17.5669C195.388 15.7178 195.176 13.8686 194.471 12.1617C194.047 11.0238 193.412 9.95698 192.494 9.10353C190.8 7.53887 188.682 6.89879 186.424 6.96991C185.012 6.96991 183.671 7.25439 182.4 7.89448C181.2 8.53456 180.212 9.38801 179.506 10.4548C179.435 10.5971 179.365 10.6682 179.223 10.6682C179.082 10.5971 179.153 10.4548 179.153 10.3837C179.153 9.60137 179.153 8.74792 179.153 7.9656C179.153 7.53887 179.012 7.46775 178.659 7.46775C177.106 7.46775 175.624 7.46775 174.071 7.46775C173.506 7.46775 173.506 7.46775 173.506 8.03672C173.506 11.8061 173.506 15.6466 173.506 19.416C173.506 23.1854 173.506 27.0259 173.506 30.7953C173.506 31.3643 173.506 31.3643 174.071 31.3643C175.694 31.3643 177.318 31.3643 178.871 31.3643C179.506 31.3643 179.506 31.3643 179.506 30.7242C179.506 27.1682 179.506 23.6833 179.506 20.1272C179.506 19.1315 179.506 18.1359 179.718 17.1402C179.929 16.1445 180.353 15.1488 181.059 14.4376C182.329 13.0152 183.882 12.5884 185.718 13.0152C187.482 13.3708 188.471 14.5798 188.965 16.2156C189.318 17.2824 189.318 18.4203 189.318 19.5583C189.318 23.3277 189.318 27.0259 189.318 30.7953C189.318 31.1509 189.388 31.2932 189.812 31.2932C191.506 31.2932 193.129 31.2932 194.824 31.2932C195.388 31.3643 195.388 31.3643 195.388 30.7953Z" fill="#D8B987"/>
<path d="M98.6115 20.7673C98.6115 16.5001 98.6115 12.304 98.6115 8.03674C98.6115 7.46777 98.6115 7.46777 98.0468 7.46777C96.4233 7.46777 94.7997 7.46777 93.1762 7.46777C92.6115 7.46777 92.6115 7.46777 92.6115 8.03674C92.6115 11.8773 92.6115 15.7889 92.6115 19.6294C92.6115 20.9096 92.6115 22.1898 92.0468 23.4699C91.5527 24.5367 90.8468 25.3902 89.788 25.8169C88.9409 26.1014 88.0939 26.1725 87.2468 26.1014C85.2703 25.9592 84.0703 24.7501 83.5762 22.901C83.2939 21.8342 83.2233 20.6962 83.2233 19.6294C83.2233 15.7889 83.2233 11.8773 83.2233 8.03674C83.2233 7.61001 83.0821 7.46777 82.6586 7.46777C80.9644 7.46777 79.3409 7.46777 77.6468 7.46777C77.2233 7.46777 77.0821 7.61001 77.1527 8.03674C77.1527 10.3837 77.1527 12.6596 77.1527 15.5044C77.2233 17.7092 76.9409 20.4829 77.3644 23.1854C77.5762 24.5367 77.9997 25.8169 78.635 26.9548C80.4703 30.013 83.2233 31.4354 86.6115 31.791C88.8703 32.0755 91.0586 31.7199 93.1056 30.6531C95.5056 29.4441 97.1292 27.5949 98.0468 25.0346C98.4703 23.6833 98.6115 22.1898 98.6115 20.7673Z" fill="#D8B987"/>
<path d="M19.3413 28.8039C17.6472 28.8039 15.8825 28.5905 14.1884 28.1638C11.0119 27.3815 7.97664 25.888 6.00017 23.2565C5.50605 22.6164 5.08252 21.8341 4.94135 21.0517C4.30605 17.4957 8.75311 17.638 11.0119 17.9936C14.5413 18.5625 18.0708 19.4871 21.6002 19.7716C25.2002 20.0561 28.9413 19.6293 31.9766 17.7091C33.1766 16.9979 34.659 16.0022 35.859 16.6423C36.5649 16.9979 36.9178 17.9224 36.9178 18.7048C36.9178 19.4871 36.5649 20.2694 36.0708 20.9806C34.7296 23.1142 32.6825 24.75 30.4237 25.9591C27.1061 27.9505 23.2237 28.875 19.3413 28.8039Z" fill="#D0AA6A"/>
<path d="M21.1762 12.0193C18.8468 12.0905 16.5879 10.9525 15.8821 8.32107C14.9644 4.69391 18.7056 1.92021 22.0232 1.99133C23.7879 2.06245 25.5527 2.98702 26.3997 4.55167C27.035 5.76072 27.035 7.32538 26.5409 8.60555C25.6232 10.6681 23.3644 11.9482 21.1762 12.0193Z" fill="#D0AA6A"/>
</g>
<defs>
<clipPath id="clip0_4_455">
<rect width="222" height="33" fill="white"/>
</clipPath>
</defs>
</svg>
